<?xml version="1.0" encoding="UTF-8"?>
<svg width="500" height="400" viewBox="0 0 500 400" fill="none" xmlns="http://www.w3.org/2000/svg">
  <defs>
    <linearGradient id="panelGradient" x1="250" y1="40" x2="250" y2="360" gradientUnits="userSpaceOnUse">
      <stop stop-color="#2D5A87"/>
      <stop offset="1" stop-color="#1E3A5F"/>
    </linearGradient>
    <linearGradient id="accentGradient" x1="0" y1="0" x2="1" y2="1">
      <stop stop-color="#38BDF8"/>
      <stop offset="1" stop-color="#2D5A87"/>
    </linearGradient>
    <linearGradient id="chartGradient" x1="0" y1="0" x2="1" y2="1">
      <stop stop-color="#2D5A87"/>
      <stop offset="1" stop-color="#1E3A5F"/>
    </linearGradient>
    <filter id="shadow" x="-20%" y="-20%" width="140%" height="140%">
      <feGaussianBlur in="SourceAlpha" stdDeviation="10"/>
      <feOffset dx="0" dy="8" result="offsetblur"/>
      <feComponentTransfer>
        <feFuncA type="linear" slope="0.25"/>
      </feComponentTransfer>
      <feMerge>
        <feMergeNode/>
        <feMergeNode in="SourceGraphic"/>
      </feMerge>
    </filter>
    <filter id="glow" x="-50%" y="-50%" width="200%" height="200%">
      <feGaussianBlur in="SourceGraphic" stdDeviation="3"/>
      <feComponentTransfer>
        <feFuncA type="linear" slope="0.6"/>
      </feComponentTransfer>
    </filter>
  </defs>

  <!-- Main Dashboard Panel -->
  <g id="dashboard-panel" filter="url(#shadow)">
    <rect x="50" y="40" width="400" height="320" rx="20" fill="url(#panelGradient)" />
    
    <!-- Header Bar -->
    <rect x="70" y="60" width="360" height="40" rx="10" fill="rgba(255,255,255,0.1)" stroke="rgba(255,255,255,0.2)" stroke-width="1"/>
    
    <!-- Search Icon -->
    <circle cx="95" cy="80" r="8" stroke="rgba(255,255,255,0.8)" stroke-width="2" fill="none"/>
    <line x1="101" y1="86" x2="107" y2="92" stroke="rgba(255,255,255,0.8)" stroke-width="2" stroke-linecap="round"/>
    
    <!-- Search Text -->
    <text x="120" y="86" fill="rgba(255,255,255,0.7)" font-family="Inter, Arial, sans-serif" font-size="16" font-weight="400">OpenSearch Analytics</text>
    
    <!-- Status Indicators - Fixed alignment -->
    <circle cx="390" cy="80" r="4" fill="#10B981">
      <animate attributeName="opacity" values="1;0.5;1" dur="2s" repeatCount="indefinite"/>
    </circle>
    <circle cx="410" cy="80" r="4" fill="#F59E0B">
      <animate attributeName="opacity" values="0.5;1;0.5" dur="1.8s" repeatCount="indefinite"/>
    </circle>
    
    <!-- Charts Container -->
    <g id="charts">
      <!-- Bar Chart - No overlapping text -->
      <rect x="80" y="130" width="150" height="100" rx="6" fill="rgba(255,255,255,0.05)" stroke="rgba(255,255,255,0.1)" stroke-width="1"/>
      <rect x="100" y="190" width="18" height="25" fill="url(#accentGradient)" rx="3">
        <animate attributeName="height" values="25;35;25" dur="2s" repeatCount="indefinite"/>
      </rect>
      <rect x="130" y="180" width="18" height="35" fill="url(#chartGradient)" rx="3">
        <animate attributeName="height" values="35;45;35" dur="2.5s" repeatCount="indefinite"/>
      </rect>
      <rect x="160" y="170" width="18" height="45" fill="#38BDF8" rx="3">
        <animate attributeName="height" values="45;55;45" dur="3s" repeatCount="indefinite"/>
      </rect>
      <rect x="190" y="185" width="18" height="30" fill="url(#accentGradient)" rx="3">
        <animate attributeName="height" values="30;40;30" dur="2.2s" repeatCount="indefinite"/>
      </rect>
      
      <!-- Pie Chart - No overlapping text -->
      <g transform="translate(320, 180)">
        <rect x="-50" y="-40" width="100" height="80" rx="6" fill="rgba(255,255,255,0.05)" stroke="rgba(255,255,255,0.1)" stroke-width="1"/>
        <circle cx="0" cy="0" r="25" fill="rgba(255,255,255,0.1)"/>
        <path d="M 0 0 L 0 -25 A 25 25 0 0 1 21.65 12.5 Z" fill="#38BDF8">
          <animateTransform attributeName="transform" values="rotate(0 0 0);rotate(5 0 0);rotate(0 0 0)" dur="4s" repeatCount="indefinite"/>
        </path>
        <path d="M 0 0 L 21.65 12.5 A 25 25 0 0 1 -21.65 12.5 Z" fill="url(#chartGradient)">
          <animateTransform attributeName="transform" values="rotate(0 0 0);rotate(-5 0 0);rotate(0 0 0)" dur="5s" repeatCount="indefinite"/>
        </path>
        <path d="M 0 0 L -21.65 12.5 A 25 25 0 0 1 0 -25 Z" fill="#2D5A87">
          <animateTransform attributeName="transform" values="rotate(0 0 0);rotate(3 0 0);rotate(0 0 0)" dur="3.5s" repeatCount="indefinite"/>
        </path>
      </g>
      
      <!-- Line Chart - No overlapping text -->
      <rect x="80" y="260" width="340" height="80" rx="6" fill="rgba(255,255,255,0.05)" stroke="rgba(255,255,255,0.1)" stroke-width="1"/>
      
      <!-- Grid Lines -->
      <g stroke="rgba(255,255,255,0.08)" stroke-width="0.5">
        <line x1="90" y1="280" x2="410" y2="280"/>
        <line x1="90" y1="300" x2="410" y2="300"/>
        <line x1="90" y1="320" x2="410" y2="320"/>
      </g>
      
      <!-- Line Graphs -->
      <path d="M 100 320 Q 180 270, 250 300 T 380 290 T 400 310" stroke="#38BDF8" stroke-width="3" fill="none" stroke-linecap="round" filter="url(#glow)">
        <animate attributeName="d" values="M 100 320 Q 180 270, 250 300 T 380 290 T 400 310;M 100 315 Q 180 265, 250 295 T 380 285 T 400 305;M 100 320 Q 180 270, 250 300 T 380 290 T 400 310" dur="4s" repeatCount="indefinite"/>
      </path>
      <path d="M 100 330 Q 160 310, 220 320 T 340 305 T 400 325" stroke="url(#accentGradient)" stroke-width="3" fill="none" stroke-linecap="round" opacity="0.8">
        <animate attributeName="d" values="M 100 330 Q 160 310, 220 320 T 340 305 T 400 325;M 100 325 Q 160 305, 220 315 T 340 300 T 400 320;M 100 330 Q 160 310, 220 320 T 340 305 T 400 325" dur="3.5s" repeatCount="indefinite"/>
      </path>
      
      <!-- Data Points -->
      <g fill="#38BDF8">
        <circle cx="250" cy="300" r="3">
          <animate attributeName="r" values="3;4;3" dur="2s" repeatCount="indefinite"/>
        </circle>
        <circle cx="380" cy="290" r="3">
          <animate attributeName="r" values="3;4;3" dur="2.5s" repeatCount="indefinite"/>
        </circle>
        <circle cx="400" cy="310" r="3">
          <animate attributeName="r" values="3;4;3" dur="3s" repeatCount="indefinite"/>
        </circle>
      </g>
    </g>
  </g>
</svg> 