<svg width="600" height="500" viewBox="0 0 600 500" fill="none" xmlns="http://www.w3.org/2000/svg">
  <rect width="600" height="500" fill="white"/>
  <circle cx="300" cy="250" r="150" fill="#F0F4FF"/>
  
  <!-- Search magnifying glass -->
  <circle cx="270" cy="230" r="80" stroke="#4A6CF7" stroke-width="12" fill="none"/>
  <line x1="330" y1="290" x2="380" y2="340" stroke="#4A6CF7" stroke-width="12" stroke-linecap="round"/>
  
  <!-- Document icons -->
  <rect x="180" y="150" width="50" height="60" rx="5" fill="#E0E8FF" stroke="#4A6CF7" stroke-width="2"/>
  <line x1="190" y1="165" x2="220" y2="165" stroke="#4A6CF7" stroke-width="2"/>
  <line x1="190" y1="175" x2="220" y2="175" stroke="#4A6CF7" stroke-width="2"/>
  <line x1="190" y1="185" x2="210" y2="185" stroke="#4A6CF7" stroke-width="2"/>
  
  <rect x="360" y="180" width="50" height="60" rx="5" fill="#E0E8FF" stroke="#4A6CF7" stroke-width="2"/>
  <line x1="370" y1="195" x2="400" y2="195" stroke="#4A6CF7" stroke-width="2"/>
  <line x1="370" y1="205" x2="400" y2="205" stroke="#4A6CF7" stroke-width="2"/>
  <line x1="370" y1="215" x2="390" y2="215" stroke="#4A6CF7" stroke-width="2"/>
  
  <rect x="220" y="310" width="50" height="60" rx="5" fill="#E0E8FF" stroke="#4A6CF7" stroke-width="2"/>
  <line x1="230" y1="325" x2="260" y2="325" stroke="#4A6CF7" stroke-width="2"/>
  <line x1="230" y1="335" x2="260" y2="335" stroke="#4A6CF7" stroke-width="2"/>
  <line x1="230" y1="345" x2="250" y2="345" stroke="#4A6CF7" stroke-width="2"/>
  
  <!-- Abstract shapes -->
  <circle cx="150" cy="200" r="10" fill="#4A6CF7" opacity="0.5"/>
  <circle cx="450" cy="300" r="15" fill="#4A6CF7" opacity="0.3"/>
  <circle cx="400" cy="150" r="8" fill="#4A6CF7" opacity="0.6"/>
  <circle cx="200" cy="350" r="12" fill="#4A6CF7" opacity="0.4"/>
  
  <!-- Abstract lines -->
  <line x1="150" y1="100" x2="180" y2="130" stroke="#4A6CF7" stroke-width="2" opacity="0.3"/>
  <line x1="450" y1="100" x2="420" y2="130" stroke="#4A6CF7" stroke-width="2" opacity="0.3"/>
  <line x1="150" y1="400" x2="180" y2="370" stroke="#4A6CF7" stroke-width="2" opacity="0.3"/>
  <line x1="450" y1="400" x2="420" y2="370" stroke="#4A6CF7" stroke-width="2" opacity="0.3"/>
</svg> 